# Blender 5.0.1
# www.blender.org
mtllib granade.mtl
o Cube.001
v -0.020543 0.039457 0.020543
v -0.010426 0.049574 -0.020543
v -0.010426 0.070426 -0.020543
v 0.020543 0.039457 0.020543
v 0.010426 0.049574 -0.020543
v 0.010426 0.070426 -0.020543
v -0.020517 0.039359 -0.020606
v 0.020536 0.039434 -0.020558
v -0.008166 -0.037125 -0.069669
v -0.007268 -0.033387 -0.058153
v 0.003941 -0.037564 -0.070470
v 0.004839 -0.033826 -0.058954
v -0.007660 -0.020941 -0.062089
v -0.008505 -0.004780 -0.064807
v -0.009275 0.013356 -0.063877
v -0.009863 0.029231 -0.058543
v -0.010250 0.040595 -0.049561
v -0.010420 0.047399 -0.037141
v 0.010424 0.047443 -0.037124
v 0.010306 0.040794 -0.049558
v 0.009883 0.029432 -0.058686
v 0.008918 0.013401 -0.064251
v 0.007370 -0.004980 -0.065419
v 0.005720 -0.021325 -0.062851
v 0.010426 0.067443 -0.043053
v 0.010426 0.058698 -0.061233
v 0.010371 0.044708 -0.074716
v 0.009601 0.023648 -0.083145
v 0.007521 -0.001902 -0.083051
v 0.005090 -0.023441 -0.076494
v -0.010426 0.067443 -0.043053
v -0.010426 0.058698 -0.061233
v -0.010387 0.044646 -0.074696
v -0.010083 0.023678 -0.082903
v -0.009516 -0.001745 -0.082430
v -0.008623 -0.023062 -0.075722
v 0.034745 0.027597 -0.034745
v 0.034745 -0.041894 -0.034745
v 0.034745 0.027597 0.034745
v 0.034745 -0.041894 0.034745
v -0.034745 0.027597 -0.034745
v -0.034745 -0.041894 -0.034745
v -0.034745 0.027597 0.034745
v -0.034745 -0.041894 0.034745
v -0.042359 -0.049508 -0.000000
v 0.000000 -0.049507 -0.042359
v 0.042359 -0.007148 -0.042359
v -0.042359 -0.007148 0.042359
v 0.042359 -0.007148 0.042359
v -0.042359 -0.007148 -0.042359
v -0.000000 0.035211 0.042359
v 0.042359 0.035211 0.000000
v -0.000000 -0.049507 0.042359
v -0.042359 0.035211 -0.000000
v 0.000000 0.035211 -0.042359
v 0.042359 -0.049507 0.000000
v 0.000000 -0.007148 0.058338
v -0.058338 -0.007148 -0.000000
v 0.000000 -0.065486 0.000000
v 0.058338 -0.007148 -0.000000
v 0.000000 -0.007148 -0.058338
v -0.013559 0.080543 0.013559
v -0.020543 0.073559 0.020543
v 0.013559 0.080543 0.013559
v 0.020543 0.073559 0.020543
v -0.013559 0.080543 -0.013559
v -0.020538 0.073559 -0.020554
v 0.013559 0.080543 -0.013559
v 0.020542 0.073559 -0.020545
vn 0.0680 0.2977 0.9522
vn 0.0009 -1.0000 0.0015
vn 0.0008 0.0039 -1.0000
vn 0.0139 0.9507 -0.3097
vn 0.9951 -0.0905 -0.0394
vn -0.0683 -0.3915 -0.9176
vn -0.9972 -0.0038 0.0747
vn 0.0495 0.1591 0.9860
vn 0.0286 -0.0579 0.9979
vn 0.0150 -0.3234 0.9462
vn 0.0089 -0.6232 0.7820
vn 0.0050 -0.8794 0.4761
vn 0.0010 -0.9917 0.1287
vn 0.9936 -0.1116 -0.0187
vn 0.9966 -0.0821 -0.0072
vn 0.9989 -0.0465 -0.0005
vn 0.9998 -0.0186 -0.0003
vn 1.0000 -0.0041 -0.0018
vn 1.0000 -0.0000 -0.0000
vn -0.0484 -0.2938 -0.9547
vn -0.0235 -0.0104 -0.9997
vn -0.0063 0.3681 -0.9298
vn -0.0014 0.6929 -0.7211
vn -0.0000 0.9012 -0.4335
vn -0.0000 0.9913 -0.1313
vn -0.9976 -0.0306 0.0621
vn -0.9988 -0.0311 0.0383
vn -0.9994 -0.0300 0.0159
vn -0.9998 -0.0189 0.0024
vn -1.0000 -0.0059 -0.0025
vn -1.0000 -0.0002 -0.0001
vn 0.4318 0.8567 -0.2823
vn 0.1905 0.9817 -0.0006
vn 0.4326 0.8562 0.2824
vn 0.3061 -0.3061 0.9015
vn 0.3061 0.3061 0.9015
vn -0.3061 0.3061 0.9015
vn -0.3061 -0.3061 0.9015
vn -0.9015 -0.3061 0.3061
vn -0.9015 0.3061 0.3061
vn -0.9015 0.3061 -0.3061
vn -0.9015 -0.3061 -0.3061
vn -0.3061 -0.9015 -0.3061
vn 0.3061 -0.9015 -0.3061
vn 0.3061 -0.9015 0.3061
vn -0.3061 -0.9015 0.3061
vn 0.9015 -0.3061 -0.3061
vn 0.9015 0.3061 -0.3061
vn 0.9015 0.3061 0.3061
vn 0.9015 -0.3061 0.3061
vn -0.3061 -0.3061 -0.9015
vn -0.3061 0.3061 -0.9015
vn 0.3061 0.3061 -0.9015
vn 0.3061 -0.3061 -0.9015
vn 0.2824 0.8566 -0.4319
vn -0.0016 0.9820 -0.1888
vn -0.2821 0.8578 -0.4297
vn -0.4291 0.8581 -0.2821
vn -0.1888 0.9820 -0.0025
vn -0.4326 0.8562 0.2824
vn -0.2824 0.8562 0.4326
vn -0.0000 0.9816 0.1911
vn 0.2824 0.8562 0.4326
vn -0.7072 0.7070 -0.0000
vn 0.0001 0.7074 -0.7068
vn 0.7071 0.7071 -0.0000
vn -0.0000 0.7071 0.7071
vn -0.0000 -0.0000 1.0000
vn -1.0000 -0.0003 -0.0004
vn -0.0000 1.0000 -0.0000
vn 1.0000 -0.0001 -0.0001
vn 0.0001 -0.0021 -1.0000
vn 0.0033 0.0010 -1.0000
vn -0.0008 0.0002 -1.0000
vt 0.905117 0.211415
vt 0.905117 0.211415
vt 0.590247 0.529034
vt 0.715524 0.529106
vt 0.715621 0.654526
vt 0.590247 0.654603
vt 0.941264 0.248933
vt 0.933723 0.165222
vt 0.975699 0.067535
vt 0.999882 0.330928
vt 0.905117 0.211415
vt 0.905117 0.211415
vt 0.905119 0.211413
vt 0.905119 0.211417
vt 0.905149 0.211383
vt 0.905145 0.211449
vt 0.905409 0.211094
vt 0.905383 0.211760
vt 0.908101 0.207402
vt 0.908044 0.215273
vt 0.905117 0.211415
vt 0.905113 0.211412
vt 0.905077 0.211382
vt 0.904854 0.211185
vt 0.902855 0.209618
vt 0.866905 0.187614
vt 0.905117 0.211415
vt 0.905113 0.211417
vt 0.905073 0.211443
vt 0.904765 0.211641
vt 0.902852 0.213073
vt 0.872672 0.238522
vt 0.295178 0.471042
vt 0.399226 0.399501
vt 0.590010 0.590216
vt 0.000118 0.590216
vt 0.191261 0.399244
vt 0.274393 0.316188
vt 0.254009 0.336559
vt 0.235066 0.295281
vt 0.272247 0.295292
vt 0.119572 0.295226
vt 0.191364 0.191308
vt 0.254039 0.254015
vt 0.274408 0.274398
vt 0.295306 0.235040
vt 0.295291 0.272245
vt 0.295253 0.119698
vt 0.399199 0.191013
vt 0.336547 0.253994
vt 0.316174 0.274396
vt 0.318326 0.295309
vt 0.295286 0.295300
vt 0.316167 0.316215
vt 0.295279 0.318353
vt 0.336537 0.336622
vt 0.295270 0.355558
vt 0.355520 0.295335
vt 0.471280 0.295511
vt 0.589998 0.001595
vt 0.000449 0.000118
vt 0.809224 0.240882
vt 0.847118 0.238353
vt 0.868930 0.254319
vt 0.798258 0.256692
vt 0.841177 0.195066
vt 0.856744 0.171043
vt 0.802930 0.205841
vt 0.784904 0.194716
vt 0.590247 0.000118
vt 0.590247 0.528798
s 0
usemtl 
f 10/1/1 12/1/1 24/2/1 13/1/1
f 7/3/2 8/4/2 4/5/2 1/6/2
f 2/7/3 5/8/3 8/9/3 7/10/3
f 9/1/4 10/1/4 12/1/4 11/1/4
f 12/1/5 11/1/5 30/2/5 24/2/5
f 11/1/6 9/1/6 36/1/6 30/2/6
f 9/1/7 10/1/7 13/1/7 36/1/7
f 13/1/8 24/2/8 23/11/8 14/12/8
f 14/12/9 23/11/9 22/13/9 15/14/9
f 15/14/10 22/13/10 21/15/10 16/16/10
f 16/16/11 21/15/11 20/17/11 17/18/11
f 17/18/12 20/17/12 19/19/12 18/20/12
f 18/20/13 19/19/13 5/8/13 2/7/13
f 24/2/14 30/2/14 29/21/14 23/11/14
f 23/11/15 29/21/15 28/22/15 22/13/15
f 22/13/16 28/22/16 27/23/16 21/15/16
f 21/15/17 27/23/17 26/24/17 20/17/17
f 20/17/18 26/24/18 25/25/18 19/19/18
f 19/19/19 25/25/19 6/26/19 5/8/19
f 30/2/20 36/1/20 35/27/20 29/21/20
f 29/21/21 35/27/21 34/28/21 28/22/21
f 28/22/22 34/28/22 33/29/22 27/23/22
f 27/23/23 33/29/23 32/30/23 26/24/23
f 26/24/24 32/30/24 31/31/24 25/25/24
f 25/25/25 31/31/25 3/32/25 6/26/25
f 36/1/26 13/1/26 14/12/26 35/27/26
f 35/27/27 14/12/27 15/14/27 34/28/27
f 34/28/28 15/14/28 16/16/28 33/29/28
f 33/29/29 16/16/29 17/18/29 32/30/29
f 32/30/30 17/18/30 18/20/30 31/31/30
f 31/31/31 18/20/31 2/7/31 3/32/31
f 52/33/33 8/35/33 4/36/33
f 52/33/34 4/36/34 39/37/34
f 7/60/56 8/35/56 55/59/56
f 1/61/59 7/60/59 54/48/59
f 4/36/62 1/61/62 51/42/62
f 62/62/64 66/63/64 67/64/64 63/65/64
f 66/63/65 68/66/65 69/67/65 67/64/65
f 68/66/66 64/68/66 65/69/66 69/67/66
f 64/68/67 62/62/67 63/65/67 65/69/67
f 4/70/68 65/69/68 63/65/68 1/71/68
f 1/71/69 63/65/69 67/64/69 7/10/69
f 68/66/70 66/63/70 62/62/70 64/68/70
f 8/9/71 69/67/71 65/69/71 4/70/71
f 6/26/72 3/32/72 67/64/72 69/67/72
f 3/32/73 2/7/73 7/10/73 67/64/73
f 5/8/74 6/26/74 69/67/74 8/9/74
usemtl Material
f 52/33/32 37/34/32 8/35/32
f 40/38/35 49/39/35 57/40/35 53/41/35
f 49/39/36 39/37/36 51/42/36 57/40/36
f 57/40/37 51/42/37 43/43/37 48/44/37
f 53/41/38 57/40/38 48/44/38 44/45/38
f 44/45/39 48/44/39 58/46/39 45/47/39
f 48/44/40 43/43/40 54/48/40 58/46/40
f 58/46/41 54/48/41 41/49/41 50/50/41
f 45/47/42 58/46/42 50/50/42 42/51/42
f 42/51/43 46/52/43 59/53/43 45/47/43
f 46/52/44 38/54/44 56/55/44 59/53/44
f 59/53/45 56/55/45 40/38/45 53/41/45
f 45/47/46 59/53/46 53/41/46 44/45/46
f 38/54/47 47/56/47 60/57/47 56/55/47
f 47/56/48 37/34/48 52/33/48 60/57/48
f 60/57/49 52/33/49 39/37/49 49/39/49
f 56/55/50 60/57/50 49/39/50 40/38/50
f 42/51/51 50/50/51 61/58/51 46/52/51
f 50/50/52 41/49/52 55/59/52 61/58/52
f 61/58/53 55/59/53 37/34/53 47/56/53
f 46/52/54 61/58/54 47/56/54 38/54/54
f 37/34/55 55/59/55 8/35/55
f 55/59/57 41/49/57 7/60/57
f 41/49/58 54/48/58 7/60/58
f 54/48/60 43/43/60 1/61/60
f 43/43/61 51/42/61 1/61/61
f 51/42/63 39/37/63 4/36/63
